{
    "asset" : {
        "generator" : "Khronos glTF Blender I/O v1.6.16",
        "version" : "2.0"
    },
    "scene" : 0,
    "scenes" : [
        {
            "name" : "Scene",
            "nodes" : [
                0,
                1,
                2,
                3,
                4,
                5,
                6,
                7
            ]
        }
    ],
    "nodes" : [
        {
            "mesh" : 0,
            "name" : "stoneBench",
            "rotation" : [
                0.7071068286895752,
                0,
                0,
                0.7071067094802856
            ],
            "translation" : [
                0,
                6.6635003089904785,
                -0.000661486410535872
            ]
        },
        {
            "mesh" : 1,
            "name" : "benchExtend",
            "rotation" : [
                0.7071068286895752,
                0,
                0,
                0.7071067094802856
            ],
            "translation" : [
                -5.132838249206543,
                6.563501358032227,
                -2.500659704208374
            ]
        },
        {
            "mesh" : 2,
            "name" : "legExtend1",
            "rotation" : [
                0.7071068286895752,
                0,
                0,
                0.7071067094802856
            ],
            "translation" : [
                -4.932838439941406,
                -0.3364994525909424,
                -2.3465800285339355
            ]
        },
        {
            "mesh" : 3,
            "name" : "door1",
            "rotation" : [
                0.7071068286895752,
                0,
                0,
                0.7071067094802856
            ],
            "translation" : [
                -4.222048759460449,
                0.314983993768692,
                2.3925068378448486
            ]
        },
        {
            "mesh" : 4,
            "name" : "workBench",
            "rotation" : [
                0.7071068286895752,
                0,
                0,
                0.7071067094802856
            ],
            "translation" : [
                0,
                -1.3364999294281006,
                -0.000661486410535872
            ]
        },
        {
            "mesh" : 5,
            "name" : "door2",
            "rotation" : [
                0.7071068286895752,
                0,
                0,
                0.7071067094802856
            ],
            "translation" : [
                4.337528228759766,
                0.36498379707336426,
                2.3925068378448486
            ]
        },
        {
            "name" : "Light",
            "rotation" : [
                0.16907575726509094,
                0.7558803558349609,
                -0.27217137813568115,
                0.570947527885437
            ],
            "translation" : [
                4.076245307922363,
                5.903861999511719,
                -1.0054539442062378
            ]
        },
        {
            "name" : "Camera",
            "rotation" : [
                0.483536034822464,
                0.33687159419059753,
                -0.20870360732078552,
                0.7804827094078064
            ],
            "translation" : [
                7.358891487121582,
                4.958309173583984,
                6.925790786743164
            ]
        }
    ],
    "animations" : [
        {
            "channels" : [
                {
                    "sampler" : 0,
                    "target" : {
                        "node" : 1,
                        "path" : "rotation"
                    }
                }
            ],
            "name" : "abrirExtensao1_1",
            "samplers" : [
                {
                    "input" : 24,
                    "interpolation" : "LINEAR",
                    "output" : 25
                }
            ]
        },
        {
            "channels" : [
                {
                    "sampler" : 0,
                    "target" : {
                        "node" : 2,
                        "path" : "rotation"
                    }
                }
            ],
            "name" : "abrirExtensao1_2",
            "samplers" : [
                {
                    "input" : 26,
                    "interpolation" : "LINEAR",
                    "output" : 27
                }
            ]
        },
        {
            "channels" : [
                {
                    "sampler" : 0,
                    "target" : {
                        "node" : 3,
                        "path" : "rotation"
                    }
                }
            ],
            "name" : "abrirPorta1",
            "samplers" : [
                {
                    "input" : 28,
                    "interpolation" : "LINEAR",
                    "output" : 29
                }
            ]
        },
        {
            "channels" : [
                {
                    "sampler" : 0,
                    "target" : {
                        "node" : 5,
                        "path" : "rotation"
                    }
                }
            ],
            "name" : "abrirPorta2",
            "samplers" : [
                {
                    "input" : 28,
                    "interpolation" : "LINEAR",
                    "output" : 30
                }
            ]
        }
    ],
    "materials" : [
        {
            "doubleSided" : true,
            "name" : "stoneBenchM",
            "pbrMetallicRoughness" : {
                "baseColorTexture" : {
                    "index" : 0
                },
                "metallicFactor" : 0,
                "roughnessFactor" : 0.5
            }
        },
        {
            "doubleSided" : true,
            "name" : "WoodM",
            "pbrMetallicRoughness" : {
                "baseColorTexture" : {
                    "index" : 1
                },
                "metallicFactor" : 0,
                "roughnessFactor" : 0.5527864098548889
            }
        }
    ],
    "meshes" : [
        {
            "name" : "Mesh",
            "primitives" : [
                {
                    "attributes" : {
                        "POSITION" : 0,
                        "NORMAL" : 1,
                        "TEXCOORD_0" : 2
                    },
                    "indices" : 3,
                    "material" : 0
                }
            ]
        },
        {
            "name" : "Mesh.001",
            "primitives" : [
                {
                    "attributes" : {
                        "POSITION" : 4,
                        "NORMAL" : 5,
                        "TEXCOORD_0" : 6
                    },
                    "indices" : 7,
                    "material" : 1
                }
            ]
        },
        {
            "name" : "Mesh.002",
            "primitives" : [
                {
                    "attributes" : {
                        "POSITION" : 8,
                        "NORMAL" : 9,
                        "TEXCOORD_0" : 10
                    },
                    "indices" : 11,
                    "material" : 1
                }
            ]
        },
        {
            "name" : "Mesh.003",
            "primitives" : [
                {
                    "attributes" : {
                        "POSITION" : 12,
                        "NORMAL" : 13,
                        "TEXCOORD_0" : 14
                    },
                    "indices" : 15,
                    "material" : 1
                }
            ]
        },
        {
            "name" : "Mesh.004",
            "primitives" : [
                {
                    "attributes" : {
                        "POSITION" : 16,
                        "NORMAL" : 17,
                        "TEXCOORD_0" : 18
                    },
                    "indices" : 19,
                    "material" : 1
                }
            ]
        },
        {
            "name" : "Mesh.005",
            "primitives" : [
                {
                    "attributes" : {
                        "POSITION" : 20,
                        "NORMAL" : 21,
                        "TEXCOORD_0" : 22
                    },
                    "indices" : 23,
                    "material" : 1
                }
            ]
        }
    ],
    "textures" : [
        {
            "sampler" : 0,
            "source" : 0
        },
        {
            "sampler" : 0,
            "source" : 1
        }
    ],
    "images" : [
        {
            "bufferView" : 4,
            "mimeType" : "image/jpeg",
            "name" : "Marble018_1K_Color"
        },
        {
            "bufferView" : 9,
            "mimeType" : "image/png",
            "name" : "Wood051_1K_Color"
        }
    ],
    "accessors" : [
        {
            "bufferView" : 0,
            "componentType" : 5126,
            "count" : 37,
            "max" : [
                5,
                2.5,
                0.09999990463256836
            ],
            "min" : [
                -5,
                -2.5,
                -0.10000038146972656
            ],
            "type" : "VEC3"
        },
        {
            "bufferView" : 1,
            "componentType" : 5126,
            "count" : 37,
            "type" : "VEC3"
        },
        {
            "bufferView" : 2,
            "componentType" : 5126,
            "count" : 37,
            "type" : "VEC2"
        },
        {
            "bufferView" : 3,
            "componentType" : 5123,
            "count" : 48,
            "type" : "SCALAR"
        },
        {
            "bufferView" : 5,
            "componentType" : 5126,
            "count" : 416,
            "max" : [
                0,
                5,
                4.000001430511475
            ],
            "min" : [
                -0.20000028610229492,
                -2.384185791015625e-07,
                9.5367431640625e-07
            ],
            "type" : "VEC3"
        },
        {
            "bufferView" : 6,
            "componentType" : 5126,
            "count" : 416,
            "type" : "VEC3"
        },
        {
            "bufferView" : 7,
            "componentType" : 5126,
            "count" : 416,
            "type" : "VEC2"
        },
        {
            "bufferView" : 8,
            "componentType" : 5123,
            "count" : 840,
            "type" : "SCALAR"
        },
        {
            "bufferView" : 10,
            "componentType" : 5126,
            "count" : 68,
            "max" : [
                0,
                4.747804641723633,
                1.000000238418579
            ],
            "min" : [
                -0.19999980926513672,
                -2.384185791015625e-07,
                -6.899999618530273
            ],
            "type" : "VEC3"
        },
        {
            "bufferView" : 11,
            "componentType" : 5126,
            "count" : 68,
            "type" : "VEC3"
        },
        {
            "bufferView" : 12,
            "componentType" : 5126,
            "count" : 68,
            "type" : "VEC2"
        },
        {
            "bufferView" : 13,
            "componentType" : 5123,
            "count" : 102,
            "type" : "SCALAR"
        },
        {
            "bufferView" : 14,
            "componentType" : 5126,
            "count" : 1056,
            "max" : [
                4.15273904800415,
                -2.384185791015625e-07,
                0
            ],
            "min" : [
                0,
                -0.31547999382019043,
                -3.3141565322875977
            ],
            "type" : "VEC3"
        },
        {
            "bufferView" : 15,
            "componentType" : 5126,
            "count" : 1056,
            "type" : "VEC3"
        },
        {
            "bufferView" : 16,
            "componentType" : 5126,
            "count" : 1056,
            "type" : "VEC2"
        },
        {
            "bufferView" : 17,
            "componentType" : 5123,
            "count" : 1536,
            "type" : "SCALAR"
        },
        {
            "bufferView" : 18,
            "componentType" : 5126,
            "count" : 5590,
            "max" : [
                5.149999618530273,
                2.3981196880340576,
                3.186381246475436e-16
            ],
            "min" : [
                -5.149999618530273,
                -2.5,
                -9.100000381469727
            ],
            "type" : "VEC3"
        },
        {
            "bufferView" : 19,
            "componentType" : 5126,
            "count" : 5590,
            "type" : "VEC3"
        },
        {
            "bufferView" : 20,
            "componentType" : 5126,
            "count" : 5590,
            "type" : "VEC2"
        },
        {
            "bufferView" : 21,
            "componentType" : 5123,
            "count" : 10788,
            "type" : "SCALAR"
        },
        {
            "bufferView" : 22,
            "componentType" : 5126,
            "count" : 1054,
            "max" : [
                9.5367431640625e-07,
                -2.384185791015625e-07,
                0
            ],
            "min" : [
                -4.152738094329834,
                -0.31547999382019043,
                -3.3141567707061768
            ],
            "type" : "VEC3"
        },
        {
            "bufferView" : 23,
            "componentType" : 5126,
            "count" : 1054,
            "type" : "VEC3"
        },
        {
            "bufferView" : 24,
            "componentType" : 5126,
            "count" : 1054,
            "type" : "VEC2"
        },
        {
            "bufferView" : 25,
            "componentType" : 5123,
            "count" : 1536,
            "type" : "SCALAR"
        },
        {
            "bufferView" : 26,
            "componentType" : 5126,
            "count" : 36,
            "max" : [
                1.4583333333333333
            ],
            "min" : [
                0
            ],
            "type" : "SCALAR"
        },
        {
            "bufferView" : 27,
            "componentType" : 5126,
            "count" : 36,
            "type" : "VEC4"
        },
        {
            "bufferView" : 28,
            "componentType" : 5126,
            "count" : 16,
            "max" : [
                2.0833333333333335
            ],
            "min" : [
                1.4583333333333333
            ],
            "type" : "SCALAR"
        },
        {
            "bufferView" : 29,
            "componentType" : 5126,
            "count" : 16,
            "type" : "VEC4"
        },
        {
            "bufferView" : 30,
            "componentType" : 5126,
            "count" : 41,
            "max" : [
                1.6666666666666667
            ],
            "min" : [
                0
            ],
            "type" : "SCALAR"
        },
        {
            "bufferView" : 31,
            "componentType" : 5126,
            "count" : 41,
            "type" : "VEC4"
        },
        {
            "bufferView" : 32,
            "componentType" : 5126,
            "count" : 41,
            "type" : "VEC4"
        }
    ],
    "bufferViews" : [
        {
            "buffer" : 0,
            "byteLength" : 444,
            "byteOffset" : 0
        },
        {
            "buffer" : 0,
            "byteLength" : 444,
            "byteOffset" : 444
        },
        {
            "buffer" : 0,
            "byteLength" : 296,
            "byteOffset" : 888
        },
        {
            "buffer" : 0,
            "byteLength" : 96,
            "byteOffset" : 1184
        },
        {
            "buffer" : 0,
            "byteLength" : 1079219,
            "byteOffset" : 1280
        },
        {
            "buffer" : 0,
            "byteLength" : 4992,
            "byteOffset" : 1080500
        },
        {
            "buffer" : 0,
            "byteLength" : 4992,
            "byteOffset" : 1085492
        },
        {
            "buffer" : 0,
            "byteLength" : 3328,
            "byteOffset" : 1090484
        },
        {
            "buffer" : 0,
            "byteLength" : 1680,
            "byteOffset" : 1093812
        },
        {
            "buffer" : 0,
            "byteLength" : 919451,
            "byteOffset" : 1095492
        },
        {
            "buffer" : 0,
            "byteLength" : 816,
            "byteOffset" : 2014944
        },
        {
            "buffer" : 0,
            "byteLength" : 816,
            "byteOffset" : 2015760
        },
        {
            "buffer" : 0,
            "byteLength" : 544,
            "byteOffset" : 2016576
        },
        {
            "buffer" : 0,
            "byteLength" : 204,
            "byteOffset" : 2017120
        },
        {
            "buffer" : 0,
            "byteLength" : 12672,
            "byteOffset" : 2017324
        },
        {
            "buffer" : 0,
            "byteLength" : 12672,
            "byteOffset" : 2029996
        },
        {
            "buffer" : 0,
            "byteLength" : 8448,
            "byteOffset" : 2042668
        },
        {
            "buffer" : 0,
            "byteLength" : 3072,
            "byteOffset" : 2051116
        },
        {
            "buffer" : 0,
            "byteLength" : 67080,
            "byteOffset" : 2054188
        },
        {
            "buffer" : 0,
            "byteLength" : 67080,
            "byteOffset" : 2121268
        },
        {
            "buffer" : 0,
            "byteLength" : 44720,
            "byteOffset" : 2188348
        },
        {
            "buffer" : 0,
            "byteLength" : 21576,
            "byteOffset" : 2233068
        },
        {
            "buffer" : 0,
            "byteLength" : 12648,
            "byteOffset" : 2254644
        },
        {
            "buffer" : 0,
            "byteLength" : 12648,
            "byteOffset" : 2267292
        },
        {
            "buffer" : 0,
            "byteLength" : 8432,
            "byteOffset" : 2279940
        },
        {
            "buffer" : 0,
            "byteLength" : 3072,
            "byteOffset" : 2288372
        },
        {
            "buffer" : 0,
            "byteLength" : 144,
            "byteOffset" : 2291444
        },
        {
            "buffer" : 0,
            "byteLength" : 576,
            "byteOffset" : 2291588
        },
        {
            "buffer" : 0,
            "byteLength" : 64,
            "byteOffset" : 2292164
        },
        {
            "buffer" : 0,
            "byteLength" : 256,
            "byteOffset" : 2292228
        },
        {
            "buffer" : 0,
            "byteLength" : 164,
            "byteOffset" : 2292484
        },
        {
            "buffer" : 0,
            "byteLength" : 656,
            "byteOffset" : 2292648
        },
        {
            "buffer" : 0,
            "byteLength" : 656,
            "byteOffset" : 2293304
        }
    ],
    "samplers" : [
        {
            "magFilter" : 9729,
            "minFilter" : 9987
        }
    ],
    "buffers" : [
        {
            "byteLength" : 2293960,
            "uri" : "data:application/octet-stream;base64,"
        }
    ]
}
